<svg xmlns="http://www.w3.org/2000/svg" xmlns:xlink="http://www.w3.org/1999/xlink" preserveAspectRatio="xMidYMid" width="50" height="84" viewBox="0 0 50 84">
  <defs>
    <style>
      .cls-1 {
        fill: #b1af9c;
      }

      .cls-1, .cls-2 {
        fill-rule: evenodd;
      }

      .cls-2 {
        fill: #5ca494;
      }
    </style>
  </defs>
  <path d="M12.179,57.019 C12.409,55.543 12.593,54.068 12.777,52.592 C12.870,52.131 12.731,52.039 12.271,52.085 C12.040,52.131 11.810,52.177 11.580,52.223 C11.212,52.269 10.844,52.315 10.475,52.223 C10.153,52.177 9.830,52.223 9.508,52.223 C9.186,52.223 8.863,52.269 8.541,52.269 C8.219,52.269 8.081,52.131 8.127,51.808 C8.173,51.255 8.173,50.702 8.311,50.194 C8.311,49.872 8.587,49.641 8.909,49.641 C9.416,49.549 9.876,49.549 10.429,49.549 C10.613,49.549 10.889,49.595 11.166,49.687 C11.534,49.733 11.856,49.733 12.225,49.733 C12.915,49.687 13.606,49.779 14.297,49.872 C14.527,49.872 14.619,50.010 14.665,50.194 C14.850,50.794 15.034,51.393 15.126,51.993 C15.172,52.177 15.126,52.362 15.080,52.546 C14.988,53.007 14.803,53.468 14.758,53.929 C14.665,54.298 14.573,54.667 14.527,55.036 C14.527,55.221 14.481,55.451 14.435,55.682 C14.389,56.235 14.389,56.788 14.297,57.296 C14.205,57.618 14.159,57.987 14.067,58.310 C13.975,58.817 13.883,59.324 13.744,59.832 C13.652,60.339 13.514,60.846 13.376,61.353 C13.054,62.921 12.685,64.443 12.317,66.010 C12.179,66.610 11.995,67.209 11.810,67.809 C11.718,68.224 11.672,68.731 11.580,69.192 C11.396,70.483 11.166,71.774 10.936,73.065 C10.705,74.218 10.429,75.371 10.153,76.524 C10.107,76.892 9.968,77.261 9.830,77.584 C9.784,77.953 10.014,77.815 10.383,77.769 C11.580,77.722 12.777,77.769 13.975,77.815 C14.251,77.769 14.527,77.815 14.803,77.815 C15.172,77.861 15.402,78.138 15.448,78.460 C15.494,78.829 15.540,79.244 15.494,79.613 C15.448,79.843 15.310,79.982 14.988,79.936 C14.711,79.890 14.481,79.843 14.205,79.843 C13.376,79.890 12.547,79.982 11.718,79.982 C11.580,79.982 11.442,80.028 11.258,79.982 C10.429,79.751 9.830,80.120 8.955,80.213 C8.587,80.305 8.173,80.305 7.804,80.305 C7.528,80.305 7.436,80.166 7.344,79.936 C7.206,79.290 7.160,78.645 7.298,77.953 C7.390,77.446 7.574,76.985 7.666,76.478 C7.758,75.832 7.989,75.232 8.127,74.633 C8.173,74.403 8.173,74.218 8.219,74.034 C8.771,72.420 9.093,70.760 9.508,69.100 C9.830,67.993 9.922,66.886 10.199,65.826 C10.521,64.304 10.889,62.829 11.212,61.353 C11.580,59.924 11.903,58.495 12.179,57.019 L12.179,57.019 ZM49.600,45.916 L0.400,45.916 L0.400,83.399 L49.600,83.399 L49.600,45.916 ZM18.902,57.711 C18.948,56.604 19.040,55.497 19.086,54.345 C19.132,53.745 19.224,53.146 19.178,52.546 C19.178,52.177 19.178,51.854 19.132,51.532 C19.086,50.978 19.224,50.563 19.409,50.102 C19.454,49.964 19.685,49.826 19.823,49.779 C20.191,49.733 20.606,49.687 21.020,49.641 C21.895,49.641 22.816,49.687 23.691,49.687 C24.059,49.641 24.382,49.641 24.750,49.595 C24.842,49.595 24.980,49.549 25.072,49.549 C25.579,49.595 25.763,49.733 25.809,50.241 C25.809,50.702 25.809,51.117 25.763,51.532 C25.763,52.039 25.533,52.223 25.072,52.223 C24.289,52.223 23.507,52.177 22.770,52.085 C22.586,52.085 22.401,52.085 22.263,52.085 C21.757,51.993 21.527,52.131 21.481,52.638 C21.342,53.929 21.250,55.221 21.112,56.558 L21.158,56.558 C21.158,56.927 21.158,57.296 21.112,57.664 C21.020,58.817 20.928,60.016 20.836,61.123 C20.790,61.722 20.790,62.275 20.790,62.829 C20.790,63.198 20.974,63.336 21.342,63.290 C21.711,63.244 22.079,63.244 22.448,63.198 C22.816,63.105 23.230,63.151 23.599,63.244 C23.967,63.336 24.335,63.336 24.704,63.382 C25.119,63.474 25.303,63.613 25.349,63.982 C25.395,64.489 25.349,64.996 25.303,65.503 C25.256,65.734 25.072,65.872 24.704,65.826 C24.197,65.918 23.691,65.918 23.184,65.964 C22.632,66.010 22.125,66.103 21.573,66.103 C21.389,66.149 21.250,66.149 21.066,66.149 C20.744,66.149 20.652,66.241 20.560,66.610 C20.513,66.933 20.513,67.256 20.513,67.578 C20.513,68.685 20.513,69.838 20.513,70.944 C20.513,70.991 20.560,71.036 20.560,71.083 C20.513,72.143 20.513,73.250 20.513,74.310 C20.468,74.956 20.513,75.602 20.560,76.293 C20.560,76.570 20.513,76.892 20.513,77.261 C20.513,77.584 20.560,77.722 20.928,77.677 C21.481,77.584 22.033,77.584 22.586,77.538 C23.507,77.400 24.382,77.307 25.303,77.215 C25.947,77.123 26.178,77.261 26.178,77.953 C26.223,78.276 26.223,78.599 26.223,78.921 C26.270,79.382 26.131,79.567 25.671,79.659 C25.349,79.705 24.980,79.751 24.612,79.797 C23.645,79.890 22.678,79.936 21.711,79.982 C21.020,79.982 20.329,79.982 19.639,80.028 C19.501,80.074 19.362,80.028 19.224,80.028 C18.810,79.982 18.626,79.843 18.579,79.429 C18.534,79.060 18.534,78.737 18.534,78.414 C18.442,77.630 18.349,76.939 18.303,76.201 C18.303,75.417 18.257,74.633 18.211,73.849 C18.257,73.480 18.211,73.157 18.211,72.789 C18.257,71.774 18.303,70.806 18.303,69.792 C18.349,68.961 18.349,68.085 18.395,67.209 C18.395,66.518 18.534,65.826 18.579,65.180 C18.626,64.397 18.672,63.613 18.718,62.875 C18.764,62.275 18.718,61.676 18.764,61.076 C18.764,60.523 18.856,59.924 18.856,59.371 C18.902,58.817 18.856,58.264 18.902,57.711 L18.902,57.711 ZM28.204,63.705 C28.204,62.460 28.249,61.215 28.249,59.924 C28.296,59.601 28.204,59.232 28.157,58.863 C28.111,56.834 28.019,53.837 27.927,51.808 C27.881,51.301 27.927,50.840 27.973,50.379 C28.019,50.102 28.204,49.964 28.572,49.964 C28.848,49.918 29.171,49.918 29.447,49.872 C29.585,49.872 29.723,49.872 29.861,49.872 C30.322,49.872 30.460,49.964 30.552,50.333 C30.920,51.808 31.427,54.160 31.703,55.636 C31.841,56.650 32.071,56.973 32.348,57.941 C32.532,58.633 32.808,59.970 33.038,60.708 C33.223,61.307 33.361,61.953 33.591,62.552 C33.914,63.613 34.282,64.719 34.650,65.780 C34.696,65.872 34.742,66.010 34.881,66.103 C34.926,65.918 34.926,65.734 34.926,65.595 C34.973,65.042 34.926,64.535 34.881,64.028 C34.926,62.967 34.881,61.953 34.881,60.892 C34.834,60.247 34.788,58.909 34.742,58.218 C34.742,56.235 34.696,54.252 34.650,52.223 C34.696,51.578 34.742,50.840 34.834,50.148 C34.834,49.687 35.065,49.549 35.525,49.641 C35.755,49.687 36.032,49.733 36.262,49.779 C36.676,49.779 36.814,49.918 36.814,50.379 C36.814,50.932 36.769,51.486 36.769,52.039 C36.769,52.131 36.769,52.269 36.769,52.408 C36.769,53.561 36.722,54.759 36.722,55.912 C36.676,56.465 36.769,57.065 36.722,57.618 C36.630,58.540 36.814,60.016 36.906,60.892 C36.906,61.999 36.906,63.105 36.953,64.258 C36.953,64.489 36.999,64.719 36.999,64.950 C37.045,66.933 37.091,68.869 37.183,70.806 C37.229,71.636 37.367,72.420 37.413,73.250 C37.551,74.264 37.689,75.279 37.735,76.293 C37.735,76.754 37.966,78.598 37.966,79.059 C37.920,79.613 37.781,79.982 36.999,79.982 C36.722,80.028 36.492,80.120 36.216,80.120 C35.847,80.120 35.709,80.028 35.617,79.705 C35.387,78.875 34.834,76.708 34.604,75.832 C34.328,75.048 34.144,74.264 33.914,73.480 C33.545,72.189 33.177,70.898 32.854,69.653 C32.440,68.085 32.026,66.518 31.611,64.904 C31.289,63.705 31.059,62.552 30.736,61.353 C30.690,61.215 30.644,61.076 30.598,60.892 C30.552,60.938 30.506,60.938 30.460,60.938 C30.414,61.123 30.368,61.307 30.368,61.538 C30.322,62.137 30.276,62.690 30.276,63.290 C30.276,64.212 30.368,65.134 30.368,66.103 C30.414,66.702 30.368,67.301 30.368,67.901 C30.414,68.500 30.414,69.054 30.414,69.607 C30.460,70.206 30.506,70.806 30.552,71.359 C30.598,72.051 30.690,73.665 30.690,74.356 C30.690,75.094 30.690,75.786 30.690,76.523 C30.736,77.446 30.828,78.368 30.920,79.336 C30.966,79.843 30.736,80.213 30.184,80.166 C29.815,80.120 29.447,80.166 29.078,80.074 C28.756,80.028 28.618,79.843 28.618,79.521 C28.618,78.783 28.618,78.091 28.664,77.400 C28.618,76.800 28.572,76.247 28.572,75.694 C28.572,75.325 28.526,74.910 28.526,74.541 C28.526,74.218 28.434,72.973 28.434,72.604 C28.388,71.405 28.388,70.160 28.296,68.961 C28.296,68.224 28.204,67.486 28.204,66.794 C28.204,66.057 28.249,65.365 28.296,64.627 C28.249,64.304 28.204,64.028 28.204,63.705 L28.204,63.705 ZM40.038,78.414 L40.084,78.414 C40.038,76.985 39.899,75.555 39.854,74.080 C39.807,72.789 39.807,71.497 39.899,70.206 C39.899,69.469 39.854,68.731 39.761,67.993 C39.807,67.255 39.807,65.595 39.807,64.858 C39.761,64.166 39.807,63.474 39.761,62.736 C39.807,61.999 39.761,61.261 39.807,60.477 C39.807,59.878 39.807,59.278 39.761,58.679 C39.807,57.203 39.807,55.128 39.761,53.699 C39.761,52.684 39.854,51.716 39.761,50.748 C39.715,50.102 39.946,49.872 40.590,49.826 C40.959,49.779 41.281,49.779 41.695,49.641 C42.202,49.641 42.478,49.826 42.524,50.379 C42.478,51.071 42.386,51.716 42.432,52.408 C42.386,53.053 42.478,53.699 42.478,54.344 C42.478,54.990 42.386,56.235 42.294,56.880 C42.294,57.065 42.294,57.249 42.294,57.388 C42.294,58.172 42.248,58.955 42.248,59.693 C42.248,60.662 42.340,61.630 42.340,62.598 C42.340,62.690 42.340,62.736 42.340,62.829 C42.340,64.581 42.294,67.209 42.294,68.961 C42.248,69.930 42.248,70.944 42.340,71.959 C42.478,73.111 42.478,74.218 42.432,75.371 C42.432,75.924 42.524,76.431 42.478,76.939 C42.478,77.722 42.432,78.506 42.432,79.290 C42.340,79.705 42.248,79.890 41.880,79.936 C41.511,79.982 41.189,79.982 40.867,79.982 C40.314,80.028 40.084,79.843 40.084,79.290 C40.084,78.967 40.084,78.691 40.038,78.414 L40.038,78.414 Z" class="cls-1"/>
  <path d="M0.400,8.488 L24.099,0.600 L49.600,8.488 L49.600,45.916 L0.400,45.916 L0.400,8.488 L0.400,8.488 ZM3.900,32.671 C3.944,33.247 3.944,33.779 3.900,34.311 C3.989,34.799 3.989,35.375 4.077,35.862 C4.166,36.527 4.166,37.192 4.299,37.857 C4.432,38.566 4.565,39.231 4.742,39.940 C4.919,40.649 5.407,41.181 5.983,41.580 C6.958,42.156 8.022,42.289 9.086,42.156 C10.239,42.067 11.036,41.314 11.790,40.472 C11.834,40.428 11.923,40.339 11.923,40.206 C12.189,39.497 12.544,38.699 12.588,37.901 C12.632,37.281 12.765,36.660 12.810,35.995 C12.765,35.596 12.677,35.153 12.588,34.710 C12.588,34.134 12.411,34.045 11.834,34.045 C11.524,34.134 11.214,34.178 10.859,34.134 C10.416,34.222 10.283,34.355 10.283,34.799 C10.327,34.887 10.371,34.976 10.371,35.064 C10.549,35.862 10.726,36.660 10.593,37.547 C10.460,38.123 10.371,38.699 9.973,39.142 C9.441,39.851 8.554,40.029 7.889,39.541 C7.490,39.231 7.136,38.788 6.870,38.344 C6.471,37.547 6.294,36.704 6.294,35.862 C6.249,34.355 6.205,32.760 6.205,31.208 C6.249,30.366 6.205,29.524 6.205,28.638 C6.161,28.283 6.205,27.884 6.205,27.485 C6.249,26.643 6.249,25.845 6.338,25.048 C6.471,23.940 6.515,22.787 6.604,21.679 C6.648,20.881 6.692,20.039 6.737,19.241 C6.781,18.576 6.870,17.911 7.003,17.247 C7.136,16.493 7.180,15.784 7.490,15.119 C7.756,14.499 8.155,14.277 8.732,14.188 C8.953,14.144 9.264,14.188 9.485,14.188 C9.928,14.321 10.371,14.277 10.726,14.587 C11.258,15.119 11.613,15.829 11.613,16.582 C11.568,17.158 11.568,17.823 11.568,18.399 C11.524,18.709 11.568,18.842 11.879,18.842 C12.278,18.754 12.677,18.798 13.076,18.665 C13.475,18.665 13.652,18.488 13.608,18.133 C13.608,16.892 13.608,15.651 13.297,14.410 C13.120,13.657 12.898,13.036 12.189,12.549 C11.480,12.017 10.637,11.707 9.707,11.707 C8.732,11.662 7.845,12.017 6.870,12.371 C5.851,12.814 5.141,13.524 4.964,14.676 C4.919,14.720 4.875,14.765 4.875,14.809 C4.831,15.385 4.698,15.917 4.698,16.493 C4.521,17.646 4.387,18.754 4.299,19.862 C4.210,20.837 4.166,21.812 4.077,22.787 C4.033,23.984 4.077,25.181 3.989,26.377 C4.033,26.953 3.989,27.530 3.989,28.150 C3.989,28.460 3.944,28.771 3.900,29.081 C3.944,30.278 3.944,31.474 3.900,32.671 L3.900,32.671 ZM22.916,41.668 C23.227,41.624 23.537,41.580 23.847,41.536 C24.157,41.536 24.335,41.358 24.423,41.048 C24.423,40.915 24.423,40.782 24.423,40.649 C24.335,40.073 24.335,39.497 24.246,38.921 C24.157,37.812 24.024,36.793 23.936,35.729 C23.847,35.109 23.847,34.488 23.759,33.868 C23.626,32.671 23.493,31.474 23.404,30.322 C23.271,29.170 23.315,27.973 23.227,26.820 C23.138,25.446 22.961,24.073 22.828,22.698 C22.650,20.482 22.429,18.310 22.118,16.139 C21.985,15.430 21.852,14.676 21.675,13.967 C21.631,13.568 21.453,13.302 21.055,13.213 C20.523,13.169 19.991,13.080 19.503,12.947 C19.281,12.903 19.015,13.036 18.927,13.213 C18.838,13.346 18.838,13.479 18.794,13.612 C18.661,14.499 18.484,15.430 18.351,16.360 C18.085,17.601 17.819,18.931 17.597,20.261 C17.464,21.058 17.464,21.812 17.375,22.610 C17.287,23.629 17.154,24.693 16.976,25.712 C16.888,26.687 16.710,27.618 16.622,28.549 C16.489,29.258 16.400,30.012 16.267,30.765 C16.178,31.740 16.001,32.715 15.868,33.690 C15.735,34.799 15.602,35.862 15.469,36.926 C15.425,37.857 15.336,38.788 15.248,39.718 C15.248,40.295 15.203,40.826 15.115,41.403 C15.115,41.713 15.292,41.890 15.602,41.846 C16.001,41.801 16.400,41.801 16.843,41.713 C17.109,41.713 17.287,41.580 17.331,41.314 C17.331,41.181 17.420,41.048 17.420,40.915 C17.508,39.851 17.641,38.788 17.819,37.679 C17.996,36.438 18.173,35.242 18.306,34.001 C18.439,32.361 18.528,30.677 18.661,28.992 C18.705,28.505 18.794,28.372 19.370,28.327 C19.725,28.327 20.079,28.327 20.478,28.372 C21.010,28.372 21.143,28.505 21.188,29.125 C21.276,30.100 21.320,31.075 21.365,32.050 C21.498,33.114 21.631,34.178 21.675,35.286 C21.719,36.306 21.852,37.325 21.897,38.300 C21.985,39.142 22.030,40.029 22.074,40.871 C22.118,41.624 22.340,41.624 22.916,41.668 L22.916,41.668 ZM18.971,26.289 C18.927,25.978 18.927,25.757 18.971,25.491 C18.971,25.180 19.060,24.826 19.104,24.516 C19.326,23.097 19.503,21.679 19.725,20.261 C19.769,19.995 19.769,19.685 20.035,19.330 C20.079,19.596 20.168,19.773 20.212,19.951 C20.345,20.704 20.434,21.457 20.523,22.211 C20.656,23.319 20.744,24.427 20.833,25.535 C20.877,26.022 20.788,26.067 20.301,26.156 C20.035,26.200 19.769,26.289 19.503,26.244 C19.326,26.289 19.148,26.289 18.971,26.289 L18.971,26.289 ZM34.574,17.513 L34.619,17.513 C34.574,16.671 34.486,15.873 34.441,15.031 C34.353,14.144 34.087,13.391 33.377,12.859 C33.067,12.637 32.757,12.416 32.491,12.105 C32.047,11.795 31.471,11.618 30.895,11.662 C30.363,11.751 29.787,11.751 29.299,12.061 C29.033,12.194 28.679,12.327 28.368,12.549 C28.147,12.682 27.925,12.814 27.703,12.992 C27.083,13.612 26.551,14.366 26.241,15.119 C26.064,15.385 26.019,15.696 25.931,16.006 C25.931,16.626 25.975,17.247 25.931,17.867 C25.975,18.532 26.064,19.153 26.374,19.773 C26.507,20.084 26.640,20.349 26.684,20.615 C26.950,21.413 27.438,22.122 27.792,22.876 C28.280,23.718 28.856,24.471 29.344,25.269 C29.831,26.067 30.319,26.998 30.806,27.795 C31.604,29.302 32.313,30.809 32.535,32.538 C32.624,33.469 32.801,34.400 32.801,35.330 C32.845,36.483 32.579,37.591 32.225,38.655 C32.047,39.275 31.737,39.807 31.028,40.073 C30.275,40.250 29.654,40.162 29.299,39.541 C29.166,39.320 29.078,39.186 28.989,38.965 C28.767,37.857 28.546,36.749 28.368,35.641 C28.324,35.508 28.324,35.375 28.280,35.286 C28.191,35.064 28.014,34.931 27.792,35.020 C27.349,35.109 26.861,35.242 26.463,35.375 C26.197,35.508 26.064,35.729 26.064,36.039 C26.152,36.350 26.197,36.660 26.197,36.970 C26.418,38.344 26.906,39.630 27.393,40.959 C27.570,41.580 28.058,42.023 28.679,42.200 C28.989,42.333 29.255,42.422 29.565,42.422 C30.319,42.422 31.028,42.555 31.737,42.200 C32.402,41.890 32.890,41.403 33.333,40.871 C33.821,40.339 34.175,39.674 34.308,38.921 C34.619,37.502 34.707,35.995 34.752,34.577 C34.752,34.267 34.707,33.956 34.663,33.690 C34.619,32.760 34.353,31.918 34.175,31.031 C33.954,30.100 33.688,29.214 33.289,28.416 C33.023,27.751 32.668,27.086 32.358,26.510 C31.870,25.491 31.427,24.471 30.762,23.585 C30.540,23.275 30.186,22.920 30.053,22.521 C29.610,21.413 28.989,20.394 28.590,19.286 C28.147,18.089 27.969,16.804 28.147,15.563 C28.191,15.031 28.457,14.587 28.856,14.277 C29.166,14.055 29.565,13.878 29.876,13.745 C30.275,13.524 30.718,13.479 31.205,13.790 C31.560,13.967 31.781,14.277 32.003,14.676 C32.313,15.385 32.446,16.050 32.624,16.804 C32.712,17.291 32.668,17.779 32.668,18.310 C32.624,18.665 32.668,18.842 32.979,18.887 C33.377,18.887 33.821,18.842 34.220,18.798 C34.486,18.754 34.619,18.621 34.619,18.355 C34.574,18.089 34.574,17.823 34.574,17.513 L34.574,17.513 L34.574,17.513 ZM44.503,41.668 C44.814,41.624 45.124,41.580 45.434,41.536 C45.745,41.536 45.922,41.358 46.011,41.048 C46.011,40.915 46.011,40.782 46.011,40.649 C45.922,40.073 45.922,39.497 45.833,38.921 C45.745,37.812 45.612,36.793 45.523,35.729 C45.434,35.109 45.434,34.488 45.346,33.868 C45.213,32.671 45.080,31.474 44.991,30.322 C44.858,29.170 44.902,27.973 44.814,26.820 C44.725,25.446 44.548,24.073 44.415,22.698 C44.237,20.482 44.016,18.310 43.705,16.139 C43.572,15.430 43.439,14.676 43.262,13.967 C43.218,13.568 43.040,13.302 42.642,13.213 C42.110,13.169 41.578,13.080 41.090,12.947 C40.869,12.903 40.602,13.036 40.514,13.213 C40.425,13.346 40.425,13.479 40.381,13.612 C40.248,14.499 40.071,15.430 39.938,16.360 C39.672,17.601 39.406,18.931 39.184,20.261 C39.051,21.058 39.051,21.812 38.963,22.610 C38.874,23.629 38.741,24.693 38.564,25.712 C38.475,26.687 38.298,27.618 38.209,28.549 C38.076,29.258 37.988,30.012 37.854,30.765 C37.766,31.740 37.589,32.715 37.456,33.690 C37.322,34.799 37.189,35.862 37.056,36.926 C37.012,37.857 36.924,38.788 36.835,39.718 C36.835,40.295 36.790,40.826 36.702,41.403 C36.702,41.713 36.879,41.890 37.189,41.846 C37.588,41.801 37.988,41.801 38.431,41.713 C38.697,41.713 38.874,41.580 38.918,41.314 C38.918,41.181 39.007,41.048 39.007,40.915 C39.096,39.851 39.229,38.788 39.406,37.679 C39.583,36.438 39.760,35.242 39.893,34.001 C40.026,32.361 40.115,30.677 40.248,28.992 C40.292,28.505 40.381,28.372 40.957,28.327 C41.312,28.327 41.666,28.327 42.066,28.372 C42.597,28.372 42.730,28.505 42.775,29.125 C42.863,30.100 42.907,31.075 42.952,32.050 C43.085,33.114 43.218,34.178 43.262,35.286 C43.306,36.306 43.439,37.325 43.484,38.300 C43.572,39.142 43.617,40.029 43.661,40.871 C43.705,41.624 43.927,41.624 44.503,41.668 L44.503,41.668 ZM40.558,26.289 C40.514,25.978 40.514,25.757 40.558,25.491 C40.558,25.180 40.647,24.826 40.691,24.516 C40.913,23.097 41.090,21.679 41.312,20.261 C41.356,19.995 41.356,19.685 41.622,19.330 C41.667,19.596 41.755,19.773 41.799,19.951 C41.932,20.704 42.021,21.457 42.110,22.211 C42.243,23.319 42.331,24.427 42.420,25.535 C42.464,26.022 42.376,26.067 41.888,26.156 C41.622,26.200 41.356,26.289 41.090,26.244 C40.913,26.289 40.735,26.289 40.558,26.289 L40.558,26.289 Z" class="cls-2"/>
</svg>
